# xmcd
#
# Track frame offsets: 
#        150
#        11826
#        25034
#        39164
#        49671
#        63217
#        119403
#        128668
#        143008
#        153075
#        167070
#        178228
#        189288
#        204704
#        218585
#        275977
#        288910
#        304088
#        320995
#        341722
#
# Disc length: 4702 seconds
#
# Revision: 0
# Processed by: cddbd v1.5.2PL0 Copyright (c) Steve Scherf et al.
# Submitted via: ExactAudioCopyFreeDBPlugin 1.0
#
DISCID=25125c14
DTITLE=Irma Thomas - Swamp Dogg Presents:  Two Phases of Irma Thomas (
DTITLE=Platinum Collection Digitally Remastered)
DYEAR=2007
DGENRE=Soul
TTITLE0=In Between Tears (original 1973 release)
TTITLE1=She'll Never Be Your Wife (original 1973 release)
TTITLE2=These Four Walls (original 1973 release)
TTITLE3=What's So Wrong With Loving You (original 1973 release)
TTITLE4=You're the Dog (I Do the Barking Myself) (original 1973 releas
TTITLE4=e)
TTITLE5=Medley: Coming From Behind (monologue) - Wish Someone Would Ca
TTITLE5=re (original 1973 release)
TTITLE6=Turn My World Around (original 1973 release)
TTITLE7=We Won't Be in Your Way Anymore (original 1973 release)
TTITLE8=I'd Do It All Over You (original 1973 release)
TTITLE9=Save a Little Bit for Me (original 1973 release)
TTITLE10=That's How I Feel About You (original 1973 release)
TTITLE11=Turn My World Around (1993 Swamp Dogg remix)
TTITLE12=These Four Walls (1993 Swamp Dogg remix)
TTITLE13=You're the Dog (I Do the Barking Myself) (1993 Swamp Dogg rem
TTITLE13=ix)
TTITLE14=Medley: Coming From Behind (monologue) - Wish Someone Would C
TTITLE14=are (1993 Swamp Dogg remix)
TTITLE15=In Between Tears (1993 Swamp Dogg remix)
TTITLE16=She'll Never Be Your Wife (1993 Swamp Dogg remix)
TTITLE17=We Won't Be in Your Way Anymore (1993 Swamp Dogg remix)
TTITLE18=I'd Do It All Over You (1993 Swamp Dogg remix)
TTITLE19=What's So Wrong With Loving You (1993 Swamp Dogg remix)
EXTD=Release date: 2007
EXTT0=
EXTT1=
EXTT2=
EXTT3=
EXTT4=
EXTT5=
EXTT6=
EXTT7=
EXTT8=
EXTT9=
EXTT10=
EXTT11=
EXTT12=
EXTT13=
EXTT14=
EXTT15=
EXTT16=
EXTT17=
EXTT18=
EXTT19=
PLAYORDER=
